<?xml version="1.0" standalone="no"?><!DOCTYPE svg PUBLIC "-//W3C//DTD SVG 1.1//EN" "http://www.w3.org/Graphics/SVG/1.1/DTD/svg11.dtd"><svg t="1535613084233" class="icon" style="" viewBox="0 0 1024 1024" version="1.1" xmlns="http://www.w3.org/2000/svg" p-id="4861" xmlns:xlink="http://www.w3.org/1999/xlink" width="200" height="200"><defs><style type="text/css"></style></defs><path d="M489.7792 0h44.4928c121.7536 5.9904 241.0496 55.6544 329.4208 139.9296 96.3072 90.112 154.0608 218.5728 160.3072 350.1056v43.776c-5.9392 121.9072-55.552 241.3056-139.8784 329.8304-90.112 96.3072-218.5728 154.0608-350.1056 160.3584h-43.776c-121.9072-5.888-241.3568-55.4496-329.8304-139.8272C64.1024 794.112 6.1952 665.6512 0 534.1184v-44.3392c6.144-130.304 63.0272-257.536 157.7984-347.4432C246.4256 56.6272 366.7968 5.9904 489.7792 0m-31.6928 49.7152c-133.632 14.7456-258.6112 91.2896-332.8 203.3664-62.464 92.16-89.1904 207.2576-74.9568 317.5424 13.4656 109.9776 68.2496 214.2208 151.04 287.8464 77.7216 70.1952 180.0192 112.896 284.7232 118.016 88.832 5.3248 179.0976-15.8208 256.3072-60.1088 95.8976-54.4768 171.3664-144.0768 208.0256-248.1664 35.4304-98.816 35.84-209.7152 1.2288-308.8384-34.2528-99.9424-104.192-187.0336-193.9968-242.688-88.4224-55.4496-195.9424-79.1552-299.5712-66.9696z" p-id="4862"></path><path d="M296.7552 186.7264c27.392 2.304 53.8112-11.9296 81.2032-6.0928 24.7296 3.4816 41.7792 26.4704 67.328 27.648 36.352-0.3072 71.7824-21.0432 108.3392-11.1104 19.2 4.3008 20.3776 34.7136 3.1232 42.24-14.6944 6.0928-30.5664 9.1136-44.5952 16.9984 20.1216 21.4016 44.3904 39.4752 71.4752 50.9952 6.6048 1.9456 15.4112 7.4752 20.2752-0.3584 6.2464-19.6096-3.6352-41.5232 6.0416-60.416 13.4656-9.984 29.9008 1.3312 42.5472 7.424 23.3984 14.4896 48.5376 29.3376 64.1024 52.6336-1.8944 3.1232-5.6832 9.4208-7.6288 12.544 12.032 7.2704 26.7776 9.984 36.8128 20.2752-28.0576-2.2016-53.8112-16.5888-82.2784-15.8208-0.9728 3.7888-2.816 11.3152-3.7888 15.0528 7.5776 3.1744 15.0528 6.6048 22.6304 9.6768 0.4096 15.8208-18.688 11.3664-27.6992 18.944-18.0736 14.5408-34.1504 31.3856-50.2272 48.0768-10.3936 9.216-7.7312 23.9616-10.3424 36.1984-6.5536-6.2976-13.8752-11.6224-20.3264-17.9712-17.6128 11.52-39.168 12.9536-57.856 21.76-0.8192 6.8608 1.9456 11.3152 8.2432 13.312 13.824 5.7856 29.6448 5.9904 42.752 13.568 7.68 4.4032 6.9632 14.2336 9.1136 21.7088 25.7536 5.7856 39.2704 29.3888 53.6576 48.9472 26.9824 23.7568 66.2528 3.4304 95.4368 21.6064 13.2608 6.7072 19.6608 20.6848 23.8592 34.1504 19.3536-1.3824 41.6256 2.7648 52.5824 20.5824-0.1024 8.8064-9.3184 13.6192-13.824 20.3264-13.7216 14.08-18.3296 33.9456-20.6848 52.8384-38.1952 30.7712-76.9024 62.0032-106.8032 101.2224-17.152 21.6064-15.7184 50.5856-19.8656 76.3904-3.9424 12.5952-21.1456 11.4688-28.8768 3.2256-15.5648-12.7488-30.3104-40.9088-11.008-56.6784-2.9184-8.8064-5.9392-18.3808-1.1264-27.136 12.7488-34.7648 5.5296-72.7552 10.0352-108.9024-24.9344-20.0192-55.04-42.0352-59.1872-76.1856-1.3312-27.4944 24.32-43.3152 40.2432-61.7472-16.128-13.9264-31.6416-30.9248-53.1968-35.9424-15.872-3.584-33.0752 3.6864-48.2304-2.7136-9.4208-14.3872-12.5952-33.3312-26.9824-44.032-9.5232-7.6288-23.552-2.7648-33.4848-7.5264-25.088-42.2912-64.3072-75.264-83.8144-120.9856-9.5744-16.9984 4.608-40.7552-12.9024-53.9648-31.8976-25.2928-82.4832-27.0336-115.0976-1.9968 13.6704-29.3888 14.4896-64.4096 34.7136-90.6752 11.008-14.2848 30.0544-8.704 45.312-8.0896z" p-id="4863"></path></svg>