<?xml version="1.0" standalone="no"?><!DOCTYPE svg PUBLIC "-//W3C//DTD SVG 1.1//EN" "http://www.w3.org/Graphics/SVG/1.1/DTD/svg11.dtd"><svg t="1535613220926" class="icon" style="" viewBox="0 0 1024 1024" version="1.1" xmlns="http://www.w3.org/2000/svg" p-id="6595" xmlns:xlink="http://www.w3.org/1999/xlink" width="200" height="200"><defs><style type="text/css"></style></defs><path d="M511.616 64.065536c-246.808576 0-447.612928 201.171968-447.612928 448.487424 0 247.259136 200.804352 448.4864 447.612928 448.4864 246.921216 0 447.669248-201.227264 447.669248-448.4864C959.285248 265.23648 758.537216 64.065536 511.616 64.065536zM587.829248 804.420608c0 4.195328-3.392512 7.53664-7.469056 7.53664L400.997376 811.957248c-4.125696 0-7.465984-3.342336-7.465984-7.53664l0-45.232128c0-4.139008 3.340288-7.486464 7.465984-7.486464l179.362816 0c4.07552 0 7.469056 3.347456 7.469056 7.486464L587.829248 804.420608zM667.892736 641.284096l-75.646976 84.799488c0 0-8.150016 10.374144-18.446336 10.374144L410.390528 736.457728c-9.275392 0-16.805888-7.54176-16.805888-16.891904l0-93.473792 52.282368 54.473728c25.801728 22.27712 53.243904 17.34656 70.556672 1.75616l81.307648-76.580864-37.115904-68.471808c-10.579968-19.388416-5.940224-42.3424 10.355712-51.243008 16.290816-8.899584 38.079488-0.342016 48.659456 19.10272l50.014208 92.109824c8.318976 15.304704 7.074816 32.876544-1.86368 43.874304L667.892736 641.284096zM727.076864 450.311168l-80.741376 81.967104c0.565248-0.567296-15.670272-28.73856-20.36736-35.142656-14.486528-19.898368-40.231936-34.861056-66.538496-16.607232-15.898624 10.993664-17.99168 26.129408-15.333376 45.572096 2.373632 17.118208 36.263936 71.023616 35.643392 71.588864l-61.50144 61.84448c-9.679872 9.691136-22.520832 15.024128-36.27008 15.024128-13.636608 0-26.422272-5.332992-36.10112-15.024128L296.436736 509.943808c-19.968-20.066304-19.968-52.543488 0-72.554496L505.334784 228.109312c19.917824-19.948544 52.337664-20.009984 72.368128 0l149.373952 149.70368c9.621504 9.639936 15.051776 22.505472 15.051776 36.278272C742.12864 427.754496 736.698368 440.620032 727.076864 450.311168z" p-id="6596"></path><path d="M583.814144 369.42336l-18.556928 15.5904c-7.356416-6.17984-14.600192-10.655744-21.445632-13.431808-6.903808-2.782208-13.524992-4.195328-19.690496-4.36736-6.055936-0.11264-11.710464 1.019904-16.692224 3.289088-5.033984 2.32448-9.393152 5.385216-12.956672 9.238528-4.301824 4.706304-7.130112 9.63584-8.317952 14.794752-1.184768 5.158912-1.527808 10.374144-0.7936 15.760384 0.68096 5.270528 2.148352 10.543104 4.243456 15.926272 2.149376 5.328896 4.472832 10.655744 7.021568 15.872l-43.968512 36.901888c-5.206016-5.444608-9.728-10.655744-13.463552-15.757312-3.67616-5.102592-6.847488-10.090496-9.504768-14.964736l-14.201856 15.362048c2.491392 3.909632 5.602304 8.33024 9.448448 13.208576 3.846144 4.872192 8.091648 9.747456 12.616704 14.676992l-23.425024 19.332096 13.298688 12.353536 23.534592-19.382272c6.567936 5.497856 13.185024 9.859072 19.806208 13.151232 6.673408 3.286016 13.184 5.210112 19.520512 5.894144 6.2208 0.623616 12.278784-0.05632 18.10432-2.213888 5.772288-2.093056 11.032576-5.778432 15.898624-10.99264 4.528128-4.934656 7.411712-9.976832 8.716288-15.361024 1.243136-5.390336 1.584128-10.830848 0.621568-16.382976-0.794624-5.556224-2.379776-11.109376-4.640768-16.724992-2.20672-5.61152-4.697088-11.107328-7.300096-16.492544l41.985024-35.030016c2.996224 3.34336 5.884928 6.914048 8.712192 10.655744 2.886656 3.853312 5.603328 7.706624 8.092672 11.619328l13.29664-14.227456c-2.1504-3.286016-4.585472-6.634496-7.356416-10.090496-2.715648-3.460096-5.490688-6.802432-8.375296-10.032128l19.06688-15.929344L583.814144 369.42336zM510.652416 487.668736c-0.733184 2.495488-2.260992 4.818944-4.299776 7.028736-4.92032 5.387264-10.692608 7.877632-17.313792 7.486464-6.560768-0.340992-14.313472-3.970048-23.079936-10.99776l38.532096-32.365568c2.03264 4.076544 3.677184 7.936 4.92032 11.334656 1.129472 3.397632 1.862656 6.573056 2.205696 9.46688C511.84128 482.507776 511.616 485.173248 510.652416 487.668736zM513.711104 427.810816c-3.621888-7.538688-5.543936-14.05952-5.885952-19.500032-0.339968-5.440512 1.41824-10.315776 5.373952-14.570496 4.24448-4.645888 9.562112-6.798336 15.676416-6.46144 6.224896 0.283648 13.519872 3.572736 21.669888 9.975808L513.711104 427.810816z" p-id="6597"></path></svg>