<?xml version="1.0" standalone="no"?><!DOCTYPE svg PUBLIC "-//W3C//DTD SVG 1.1//EN" "http://www.w3.org/Graphics/SVG/1.1/DTD/svg11.dtd"><svg t="1535612848569" class="icon" style="" viewBox="0 0 1024 1024" version="1.1" xmlns="http://www.w3.org/2000/svg" p-id="2939" xmlns:xlink="http://www.w3.org/1999/xlink" width="200" height="200"><defs><style type="text/css"></style></defs><path d="M847.442 960.5H175.558c-35.378 0-64.058-28.68-64.058-64.058V192.5h0.003l0.177-93.352c0.04-20.521 29.437-34.648 64.053-34.648h223.951c17.669 0 38.252 7.229 46.319 16.546l86.873 100.334a32.189 32.189 0 0 0 24.335 11.119h290.23c35.378 0 64.058 28.68 64.058 64.058v639.885c0.001 35.378-28.679 64.058-64.057 64.058zM287.5 736.5c17.673 0 32-14.327 32-32s-14.327-32-32-32-32 14.327-32 32 14.327 32 32 32z m0-128c17.673 0 32-14.327 32-32s-14.327-32-32-32-32 14.327-32 32 14.327 32 32 32z m0-128c17.673 0 32-14.327 32-32 0-17.673-14.327-32-32-32s-32 14.327-32 32c0 17.673 14.327 32 32 32z m448-64H416.221c-17.467 0-32.26 13.694-32.71 31.155-0.465 18.059 14.035 32.845 31.989 32.845h319.279c17.467 0 32.26-13.694 32.71-31.155 0.465-18.059-14.035-32.845-31.989-32.845z m0 128H416.221c-17.467 0-32.26 13.694-32.71 31.155-0.465 18.059 14.035 32.845 31.989 32.845h319.279c17.467 0 32.26-13.694 32.71-31.155 0.465-18.059-14.035-32.845-31.989-32.845z m0 128H416.221c-17.467 0-32.26 13.694-32.71 31.155-0.465 18.059 14.035 32.845 31.989 32.845h319.279c17.467 0 32.26-13.694 32.71-31.155 0.465-18.059-14.035-32.845-31.989-32.845z" p-id="2940"></path></svg>