<?xml version="1.0" standalone="no"?><!DOCTYPE svg PUBLIC "-//W3C//DTD SVG 1.1//EN" "http://www.w3.org/Graphics/SVG/1.1/DTD/svg11.dtd"><svg t="1535613006084" class="icon" style="" viewBox="0 0 1024 1024" version="1.1" xmlns="http://www.w3.org/2000/svg" p-id="4580" xmlns:xlink="http://www.w3.org/1999/xlink" width="200" height="200"><defs><style type="text/css"></style></defs><path d="M304.128 285.184c-7.168 0-14.848-2.56-20.48-8.192L189.952 184.32 95.744 276.48c-11.776 11.264-30.208 11.264-41.472-0.512-11.264-11.776-11.264-30.208 0.512-41.472L168.96 122.368c11.264-11.264 29.696-11.264 40.96 0l114.688 112.128c11.776 11.264 11.776 29.696 0.512 41.472C319.488 282.112 311.808 285.184 304.128 285.184z" p-id="4581"></path><path d="M718.848 452.608 248.32 452.608c-10.24 0-19.968-5.632-25.6-14.848-5.12-9.216-5.12-20.48 0-29.184l88.064-151.552c5.12-9.216 14.848-14.848 25.6-14.848l294.4 0c10.24 0 19.968 5.632 25.6 14.848l88.064 151.552c5.12 9.216 5.12 20.48 0 29.184C738.816 446.976 729.088 452.608 718.848 452.608zM299.52 394.24l368.64 0-53.76-93.184L353.28 301.056 299.52 394.24z" p-id="4582"></path><path d="M952.832 680.448l-286.208 0c-16.384 0-29.184-13.312-29.184-29.184l0-120.32c0-16.384 13.312-29.184 29.184-29.184l198.144 0c9.216 0 17.92 4.608 23.552 11.776l88.064 120.32c6.656 8.704 7.68 20.48 2.56 30.72C973.824 674.304 963.584 680.448 952.832 680.448zM695.808 621.568l199.168 0-45.056-61.952-154.112 0L695.808 621.568z" p-id="4583"></path><path d="M953.344 915.456 74.24 915.456c-16.384 0-29.184-13.312-29.184-29.184s13.312-29.184 29.184-29.184l879.104 0c16.384 0 29.184 13.312 29.184 29.184S969.216 915.456 953.344 915.456z" p-id="4584"></path><path d="M894.464 915.456c-16.384 0-29.184-13.312-29.184-29.184l0-235.52c0-16.384 13.312-29.184 29.184-29.184s29.184 13.312 29.184 29.184l0 235.52C923.648 902.144 910.336 915.456 894.464 915.456z" p-id="4585"></path><path d="M666.624 915.456c-16.384 0-29.184-13.312-29.184-29.184L637.44 482.816c0-16.384 13.312-29.184 29.184-29.184 16.384 0 29.184 13.312 29.184 29.184l0 403.456C695.808 902.144 683.008 915.456 666.624 915.456z" p-id="4586"></path><path d="M112.64 588.288c-16.384 0-29.184-13.312-29.184-29.184L83.456 242.176c0-16.384 13.312-29.184 29.184-29.184s29.184 13.312 29.184 29.184l0 316.928C142.336 574.976 129.024 588.288 112.64 588.288z" p-id="4587"></path><path d="M112.64 915.968c-16.384 0-29.184-13.312-29.184-29.184l0-233.984c0-16.384 13.312-29.184 29.184-29.184s29.184 13.312 29.184 29.184l0 233.984C142.336 902.656 129.024 915.968 112.64 915.968z" p-id="4588"></path><path d="M370.688 606.208c-16.384 0-29.184-13.312-29.184-29.184L341.504 499.2c0-16.384 13.312-29.184 29.184-29.184 16.384 0 29.184 13.312 29.184 29.184l0 77.824C399.872 592.896 387.072 606.208 370.688 606.208z" p-id="4589"></path><path d="M546.304 606.208c-16.384 0-29.184-13.312-29.184-29.184L517.12 499.2c0-16.384 13.312-29.184 29.184-29.184 16.384 0 29.184 13.312 29.184 29.184l0 77.824C576 592.896 562.688 606.208 546.304 606.208z" p-id="4590"></path><path d="M273.92 915.456c-16.384 0-29.184-13.312-29.184-29.184L244.736 482.304c0-16.384 13.312-29.184 29.184-29.184 16.384 0 29.184 13.312 29.184 29.184l0 403.968C303.104 902.144 290.304 915.456 273.92 915.456z" p-id="4591"></path><path d="M426.496 827.904c-16.384 0-29.184-13.312-29.184-29.184l0-20.48c0-38.4 32.768-69.12 73.216-69.12 40.448 0 73.216 31.232 73.216 69.12l0 19.968c0 16.384-13.312 29.184-29.184 29.184s-29.184-13.312-29.184-29.184L485.376 778.24c0-5.632-6.656-10.752-14.848-10.752-8.704 0-14.848 5.632-14.848 10.752l0 20.48C455.68 814.592 442.88 827.904 426.496 827.904z" p-id="4592"></path><path d="M666.624 772.096" p-id="4593"></path><path d="M752.64 886.272" p-id="4594"></path><path d="M666.624 855.552" p-id="4595"></path><path d="M822.784 886.272" p-id="4596"></path><path d="M667.648 680.96l-593.92 0c-16.384 0-29.184-13.312-29.184-29.184l0-93.184c0-16.384 13.312-29.184 29.184-29.184l200.704 0c16.384 0 29.184 13.312 29.184 29.184s-13.312 29.184-29.184 29.184L102.912 587.776l0 34.304 564.736 0c16.384 0 29.184 13.312 29.184 29.184S684.032 680.96 667.648 680.96z" p-id="4597"></path><path d="M189.44 393.216 189.44 393.216c-16.384 0-29.184-13.312-29.184-29.184l0-73.216c0-16.384 13.312-29.184 29.184-29.184l0 0c16.384 0 29.184 13.312 29.184 29.184l0 73.216C219.136 380.416 205.824 393.216 189.44 393.216z" p-id="4598"></path><path d="M189.44 834.56 189.44 834.56c-16.384 0-29.184-13.312-29.184-29.184l0-73.216c0-16.384 13.312-29.184 29.184-29.184l0 0c16.384 0 29.184 13.312 29.184 29.184l0 73.216C219.136 821.248 205.824 834.56 189.44 834.56z" p-id="4599"></path></svg>