<?xml version="1.0" standalone="no"?><!DOCTYPE svg PUBLIC "-//W3C//DTD SVG 1.1//EN" "http://www.w3.org/Graphics/SVG/1.1/DTD/svg11.dtd"><svg t="1536075910774" class="icon" style="" viewBox="0 0 1024 1024" version="1.1" xmlns="http://www.w3.org/2000/svg" p-id="1073" xmlns:xlink="http://www.w3.org/1999/xlink" width="200" height="200"><defs><style type="text/css"></style></defs><path d="M712.279996 1023.999978 469.520001 1023.999978c16.04-18.064 26.079999-41.727999 26.079999-67.823999 0-26.135999-10.032-49.791999-26.111999-67.895999 55.495999-0.112 100.695998-45.863999 100.695998-102.055998 0-35.079999-17.576-65.967999-44.231999-84.287998 27.799999-18.2 46.327999-49.687999 46.327999-85.591998 0-54.551999-31.151999-93.775998-77.103998-100.711998 16.792-18.208 27.255999-42.383999 27.255999-69.239998 0-23.183999-8.016-44.415999-21.032-61.575999l1.392 0c-62.575999-132.511997-61.599999-276.959994-55.455999-304.759993 11.04-50.663999 58.223999-85.087998 109.255998-79.447998 51.143999 5.632 90.055998 52.263999 90.055998 104.239998 0 2.296-0.576 4.504-0.752 6.76-0.264 11.016-1.376 222.911995 133.095997 284.599994 12.016 4.096 23.455999 9.256 34.303999 15.368 0 0 0 0.072 0.12 0.072 62.895999 35.831999 105.479998 103.799998 105.479998 181.911996l0 221.679995C918.887991 930.55198 826.391993 1023.999978 712.279996 1023.999978zM488.664001 446.39199c0 37.399999-30.135999 67.887999-67.175999 67.887999L250.904006 514.279989c-37.079999 0-67.071999-30.495999-67.071999-67.887999 0-37.471999 29.999999-67.791999 67.071999-67.791999l170.575996 0C458.520001 378.599992 488.664001 408.919991 488.664001 446.39199zM421.480002 548.511988l49.815999 0 9.6 0c37.119999 0 57.535999 30.351999 57.535999 67.831999 0 37.399999-30.023999 67.783999-67.135999 67.783999l-2.056 0L174.376007 684.127985c-37.119999 0-67.151999-30.383999-67.151999-67.783999 0-37.479999 30.031999-67.831999 67.151999-67.831999l76.527998 0L421.480002 548.511988zM172.248007 718.335984l2.128 0 294.863994 0c37.047999 0 67.111999 30.423999 67.111999 67.887999s-30.063999 67.847999-67.111999 67.847999l-74.591998 0L286.616005 854.071981 172.248007 854.071981c-37.079999 0-67.143999-30.383999-67.143999-67.847999S135.168008 718.335984 172.248007 718.335984zM286.616005 888.279981l108.031998 0c37.055999 0 67.119999 30.311999 67.119999 67.895999 0 37.391999-30.063999 67.823999-67.119999 67.823999l-36.319999 0-71.711998 0c-36.999999 0-67.063999-30.431999-67.063999-67.823999C219.544006 918.59198 249.608006 888.279981 286.616005 888.279981z" p-id="1074"></path></svg>