<?xml version="1.0" standalone="no"?><!DOCTYPE svg PUBLIC "-//W3C//DTD SVG 1.1//EN" "http://www.w3.org/Graphics/SVG/1.1/DTD/svg11.dtd"><svg t="1535613129292" class="icon" style="" viewBox="0 0 1024 1024" version="1.1" xmlns="http://www.w3.org/2000/svg" p-id="5394" xmlns:xlink="http://www.w3.org/1999/xlink" width="200" height="200"><defs><style type="text/css"></style></defs><path d="M174.452722 321.832047l66.288158-23.352893c22.014966-7.905927 22.988003-22.988003 2.675852-34.42119L152.559385 214.068179c-5.351704-2.919112-13.62252-5.351704-21.041929-6.446371-18.244447 2.554223-23.231263 17.636299-10.581779 35.515857l53.517045 78.694382z m238.880627-74.437345L181.385612 329.008196l8.635705 28.704596 176.241359 12.162965 331.440788-116.521202c121.386388-42.813636 219.541513-109.223423 212.608624-132.941204-7.05452-23.717781-116.764461-6.446371-238.15085 36.367264L619.98212 175.146692 370.762973 80.640456c-18.244447-6.81126-47.922081-7.176149-66.288158-0.729778-18.244447 6.568001-22.258225 23.717781-8.635705 38.434969l117.494239 129.049055z m-287.410856-40.259413c1.581185 0 3.648889 0.364889 5.716593 0.364889 1.946074-0.364889 4.013778-0.364889 5.959853-0.364889h-11.676446z m789.741299 63.247417c-20.312151-4.257038-41.23245-7.541038-61.90949-10.825039-39.529635 20.433781-88.546383 41.23245-139.630835 59.355268l-185.606842 65.071861c-0.608148 191.931583-0.364889 383.498278-0.364889 575.429861 0 2.554223 0.973037 5.108445 1.946074 9.730372 4.986816-1.702815 9.973631-2.554223 13.98741-5.108445 108.372016-64.706972 225.866255-76.991567 346.036346-64.342083 68.477491 7.176149 72.49127 5.716593 72.49127-69.08564V332.900344c0.486519-48.4086-1.702815-53.152156-46.949044-62.517638z m-25.298967 482.74807s-196.310251-1.094667-272.815298 39.529635v-45.732747s100.709348-35.880746 272.815298-35.880746v42.083858z m0-161.645802s-196.310251-1.094667-272.815298 39.529636v-45.732748s100.709348-35.880746 272.815298-35.880745v42.083857z m0-169.065209s-196.310251-1.094667-272.815298 39.529635v-45.246229s100.709348-35.880746 272.815298-35.880746v41.59734zM151.221459 436.528804l-15.933484-53.517045-57.287563-84.167716c-2.919112-4.257038-5.716593-9.000594-7.662668-13.379261-7.05452 7.905927-9.000594 20.433781-9.000594 41.23245V852.623827c0 45.246229 9.000594 54.611712 51.206081 49.260007 101.439126-12.162965 201.661955-8.635705 298.357525 28.704597 27.366671 10.46015 53.273785 25.177337 83.194679 39.164746 0.608148-9.730372 1.581185-18.366077 1.581185-27.001781 0-182.5661 0-365.253831 0.364889-547.819931l-121.386388 43.178524L151.221459 436.528804z m257.733223 356.253237C332.449634 752.157738 136.139383 753.130776 136.139383 753.130776v-42.083858c171.984321 0 272.815299 35.880746 272.815299 35.880746v45.854377z m0-161.767431C332.449634 590.390308 136.139383 591.484974 136.139383 591.484974v-42.083857c171.984321 0 272.815299 35.880746 272.815299 35.880745v45.732748z" p-id="5395"></path></svg>